<?xml version="1.0" standalone="no"?>
<!DOCTYPE svg PUBLIC "-//W3C//DTD SVG 20010904//EN"
 "http://www.w3.org/TR/2001/REC-SVG-20010904/DTD/svg10.dtd">
<svg version="1.0" xmlns="http://www.w3.org/2000/svg"
 width="300.000000pt" height="86.000000pt" viewBox="0 0 300.000000 86.000000"
 preserveAspectRatio="xMidYMid meet">
<metadata>
Created by potrace 1.10, written by Peter Selinger 2001-2011
</metadata>
<g transform="translate(0.000000,86.000000) scale(0.100000,-0.100000)"
fill="#000000" stroke="none">
<path d="M2373 781 c-26 -21 -115 -107 -197 -189 l-150 -151 -26 132 c-39 190
-53 229 -81 212 -7 -5 -5 -13 6 -25 9 -10 30 -87 49 -176 l33 -158 -20 -28
c-12 -15 -24 -28 -28 -28 -4 0 -10 33 -14 73 -3 39 -9 87 -13 105 -7 31 -9 29
-52 -68 -25 -55 -47 -100 -50 -100 -3 0 -25 45 -49 100 -25 55 -46 98 -47 97
-1 -1 -7 -40 -13 -87 -18 -138 -21 -148 -39 -153 -9 -3 0 -5 21 -6 27 -1 36 2
31 11 -8 13 -6 112 3 143 5 15 16 -1 48 -70 l42 -90 15 35 c50 111 69 152 72
149 2 -2 6 -40 10 -85 l6 -81 -86 -104 c-127 -154 -159 -219 -109 -219 11 0
14 6 9 24 -4 18 7 39 47 92 79 105 160 194 176 194 8 0 12 4 9 9 -6 9 30 60
36 51 2 -3 12 -39 22 -80 32 -134 69 -200 111 -200 27 0 41 15 51 54 5 22 4
28 -7 24 -7 -2 -16 -15 -19 -29 -9 -38 -41 -30 -67 16 -12 22 -33 85 -47 140
l-25 100 34 35 35 35 0 -42 c0 -130 194 -165 224 -40 4 16 2 27 -4 27 -5 0
-10 -9 -10 -20 0 -33 -44 -70 -83 -70 -71 0 -118 75 -96 153 21 76 111 96 163
35 16 -18 26 -25 22 -15 -3 10 -6 25 -6 32 0 13 -42 31 -88 37 -21 3 -13 13
65 88 48 48 103 98 122 112 18 14 29 28 23 32 -6 3 -32 -12 -59 -33z"/>
<path d="M485 590 c-17 -7 -16 -9 10 -9 59 -2 59 -9 9 -129 -28 -67 -53 -113
-63 -115 -9 -3 1 -5 21 -6 30 -1 36 2 32 14 -4 9 -1 29 6 45 11 27 16 29 57
27 44 -2 46 -4 62 -45 33 -84 104 -143 134 -113 8 8 3 11 -15 11 -39 0 -72 49
-118 176 -49 136 -79 168 -135 144z m94 -97 c7 -21 15 -44 17 -50 4 -9 -6 -13
-35 -13 -23 0 -41 1 -41 3 0 15 34 97 39 97 4 0 13 -17 20 -37z"/>
<path d="M770 567 c-13 -7 -35 -28 -48 -47 -43 -64 -16 -157 55 -187 69 -28
153 12 153 74 l-1 28 -13 -31 c-35 -79 -133 -87 -171 -14 -24 46 -19 103 11
139 21 26 33 31 68 31 44 0 66 -12 84 -45 11 -20 11 -20 12 0 0 11 -4 25 -8
31 -22 33 -96 44 -142 21z"/>
<path d="M1020 468 c-24 -60 -53 -116 -64 -124 -19 -13 -18 -14 16 -14 31 0
35 3 31 19 -10 38 14 61 62 61 48 0 72 -23 62 -61 -4 -16 0 -19 36 -18 32 0
37 2 22 8 -13 6 -35 44 -64 117 -24 60 -47 112 -50 116 -3 4 -26 -43 -51 -104z
m79 -25 c1 -8 -12 -13 -34 -13 -19 0 -35 1 -35 3 0 2 8 26 17 52 l16 50 18
-40 c10 -22 18 -46 18 -52z"/>
<path d="M1224 568 c13 -7 16 -29 16 -113 0 -88 -3 -106 -17 -115 -14 -8 5
-10 75 -8 92 3 94 4 123 36 58 65 29 174 -54 201 -39 13 -166 12 -143 -1z
m149 -19 c49 -22 68 -94 40 -149 -22 -42 -54 -60 -110 -60 l-43 0 0 110 0 110
45 0 c24 0 55 -5 68 -11z"/>
<path d="M1504 568 c13 -7 16 -29 16 -113 0 -89 -3 -106 -17 -114 -14 -8 2
-10 59 -11 l76 0 11 33 11 32 -18 -23 c-12 -15 -33 -25 -60 -29 l-42 -6 0 52
0 51 34 0 c19 0 37 -6 39 -12 3 -7 5 3 5 22 0 19 -2 29 -5 23 -2 -7 -20 -13
-39 -13 l-34 0 0 50 0 50 38 0 c21 0 43 -5 50 -12 9 -9 12 -7 12 10 0 21 -4
22 -76 20 -49 -1 -70 -5 -60 -10z"/>
</g>
</svg>
